# xmcd
# 
# Track frame offsets:
#     150
#     26048
#     56980
#     71483
#     96028
#     118620
#     137095
#     158543
#     183695
# 
# Disc length: 2649
# 
# Revision: 2
# Processed by: cddbd v1.5.2PL0 Copyright (c) Steve Scherf et al.
# Submitted via: BonkEnc v1.0.8
# 
DISCID=7c0a5709
DTITLE=David Spinozza - Spinozza
DYEAR=1978
DGENRE=Fusion
TTITLE0=Superstar
TTITLE1=On My Way To The Liquor Store
TTITLE2=Prelude To "The Ballerina"
TTITLE3=The Ballerina
TTITLE4=Edge Of The Sword
TTITLE5=Country Bumpkin
TTITLE6=Doesn't She Know By Now
TTITLE7=Airborne
TTITLE8=High Button Shoes
EXTD=
EXTT0=
EXTT1=
EXTT2=
EXTT3=
EXTT4=
EXTT5=
EXTT6=
EXTT7=
EXTT8=
PLAYORDER=
